<svg width="185" height="360" viewBox="0 0 185 360" fill="none" xmlns="http://www.w3.org/2000/svg">
<g id="Group 2">
<g id="Group 1">
<path id="Rectangle 5" d="M157 86.5C157 79.0442 163.044 73 170.5 73V73C177.956 73 184 79.0442 184 86.5V257C184 271.912 171.912 284 157 284V284V86.5Z" fill="#FF0060"/>
<path id="Rectangle 4" d="M118 46.5C118 39.0442 124.044 33 131.5 33V33C138.956 33 145 39.0442 145 46.5V287.425C145 302.102 133.102 314 118.425 314V314C118.19 314 118 313.81 118 313.575V46.5Z" fill="#FF0000"/>
<path id="Rectangle 3" d="M79 13.5C79 6.04416 85.0442 0 92.5 0V0C99.9558 0 106 6.04416 106 13.5V317C106 321.418 102.418 325 98 325H87C82.5817 325 79 321.418 79 317V13.5Z" fill="#FF5C00"/>
<path id="Rectangle 2" d="M40 46.5C40 39.0442 46.0442 33 53.5 33V33C60.9558 33 67 39.0442 67 46.5V314V314C52.0883 314 40 301.912 40 287V46.5Z" fill="#479400"/>
<path id="Rectangle 1" d="M1 141.5C1 134.044 7.04416 128 14.5 128V128C21.9558 128 28 134.044 28 141.5V271V271C13.0883 271 1 258.912 1 244V141.5Z" fill="#096DD2"/>
<ellipse id="Ellipse 2" cx="92.5" cy="265.606" rx="92.5" ry="93.6056" fill="black"/>
</g>
</g>
</svg>
